<svg enable-background="new 0 0 32 32" height="32" viewBox="0 0 32 32" width="32" xmlns="http://www.w3.org/2000/svg"><path d="m22.397 14.826 8.603-4.493-1-2.333-8.859 4.7-5.141-8.7-5.141 8.7-8.859-4.7-1 2.333 8.603 4.493-3.438 5.819-6.165 3.271 1 2.084 2.893-1.511-.893 1.511h26l-.893-1.511 2.893 1.511 1-2.084-6.164-3.271zm-1.126 3.398-2.669-1.416 1.433-.748zm-5.271-9.224 2.818 4.933-2.818 1.495-2.818-1.495zm-4.034 7.06 1.433.748-2.669 1.416zm12.034 6.94h-16l.534-.935 7.466-3.899 7.466 3.899z"/></svg>