<svg enable-background="new 0 0 32 32" height="32" viewBox="0 0 32 32" width="32" xmlns="http://www.w3.org/2000/svg"><path d="m11.398 16.982v-.021c1.031-.291 1.547-.942 1.547-1.955 0-.537-.206-.979-.618-1.322-.411-.344-.959-.516-1.643-.516-.713 0-1.331.147-1.854.441v1.105c.455-.368.939-.553 1.455-.553.924 0 1.387.379 1.387 1.139 0 .824-.593 1.235-1.778 1.235h-.569v.999h.596c1.336 0 2.004.438 2.004 1.311 0 .397-.153.713-.459.945-.307.232-.716.35-1.228.35-.63 0-1.196-.199-1.697-.597v1.171c.455.275 1.063.414 1.826.414.849 0 1.532-.213 2.052-.637s.779-.982.779-1.674c0-.501-.162-.919-.484-1.254-.322-.333-.761-.528-1.316-.581z"/><path d="m17.028 13.168c-.884 0-1.561.35-2.029 1.048-.47.698-.704 1.728-.704 3.089 0 1.238.225 2.186.674 2.841s1.075.983 1.878.983c.859 0 1.527-.344 2.006-1.029.478-.686.717-1.68.717-2.983-.001-2.633-.847-3.949-2.542-3.949zm-.086 6.973c-.916 0-1.375-.964-1.375-2.891 0-2.059.468-3.088 1.402-3.088.885 0 1.326 1.014 1.326 3.04.001 1.958-.45 2.939-1.353 2.939z"/><path d="m22.128 13.189c-.416 0-.769.144-1.059.43-.29.287-.436.638-.436 1.053 0 .423.147.781.441 1.074.293.294.649.441 1.068.441.415 0 .77-.147 1.063-.441.294-.293.44-.651.44-1.074 0-.411-.147-.762-.443-1.049-.293-.289-.652-.434-1.074-.434zm.556 2.047c-.156.158-.34.236-.551.236-.215 0-.396-.078-.545-.234-.148-.154-.224-.342-.224-.561 0-.215.076-.397.229-.548s.336-.226.551-.226c.211 0 .393.074.545.223s.229.332.229.551c-.001.216-.079.401-.234.559z"/><path d="m27.609 9.951c-.533-.106-.868-.417-1.256-.805-.51-.51-1.146-1.146-2.353-1.146s-1.843.636-2.354 1.146c-.476.477-.853.854-1.646.854s-1.17-.377-1.646-.854c-.511-.51-1.147-1.146-2.354-1.146s-1.843.636-2.354 1.146c-.476.477-.853.854-1.646.854s-1.17-.377-1.646-.854c-.511-.51-1.147-1.146-2.354-1.146s-1.843.636-2.354 1.146c-.387.388-.722.699-1.255.805l-.391-1.951h-3l4 18h22l4-18h-3zm-2.609 13.049h-18l-2.412-12.062c.836-.167 1.346-.665 1.766-1.085.476-.476.853-.853 1.646-.853s1.17.377 1.646.854c.511.51 1.147 1.146 2.354 1.146s1.843-.636 2.354-1.146c.476-.477.853-.854 1.646-.854s1.17.377 1.646.854c.511.51 1.147 1.146 2.354 1.146s1.843-.636 2.354-1.146c.476-.477.853-.854 1.646-.854s1.17.377 1.646.854c.42.42.93.918 1.766 1.085z"/></svg>