<svg enable-background="new 0 0 32 32" height="32" viewBox="0 0 32 32" width="32" xmlns="http://www.w3.org/2000/svg"><path d="m12.534 13.301h-1.332l-3.34 5.037v.807h3.502v1.857h1.17v-1.857h.962v-.94h-.962zm-1.17 1.922v2.981h-2.358l2.095-3.163c.133-.236.221-.412.264-.527h.021c-.015.261-.022.498-.022.709z"/><path d="m17.102 13.172c-.884 0-1.561.349-2.029 1.047-.47.698-.704 1.728-.704 3.088 0 1.239.225 2.187.674 2.842s1.075.982 1.878.982c.859 0 1.527-.342 2.006-1.027.478-.687.717-1.682.717-2.984-.001-2.633-.848-3.948-2.542-3.948zm-.086 6.971c-.916 0-1.375-.963-1.375-2.889 0-2.06.468-3.089 1.402-3.089.885 0 1.326 1.013 1.326 3.04 0 1.959-.451 2.938-1.353 2.938z"/><path d="m22.2 13.193c-.416 0-.769.143-1.059.43-.29.286-.436.637-.436 1.053 0 .422.147.78.441 1.074.293.293.649.439 1.068.439.415 0 .77-.146 1.063-.439.294-.294.44-.652.44-1.074 0-.412-.147-.762-.443-1.051-.293-.288-.652-.432-1.074-.432zm.556 2.046c-.156.157-.34.236-.551.236-.215 0-.396-.077-.545-.233s-.224-.344-.224-.562c0-.215.076-.397.229-.548s.336-.226.551-.226c.211 0 .393.074.545.224.152.148.229.332.229.55-.001.216-.079.402-.234.559z"/><path d="m27.609 9.951c-.533-.106-.868-.417-1.256-.805-.51-.51-1.146-1.146-2.353-1.146s-1.843.636-2.354 1.146c-.476.477-.853.854-1.646.854s-1.17-.377-1.646-.854c-.511-.51-1.147-1.146-2.354-1.146s-1.843.636-2.354 1.146c-.476.477-.853.854-1.646.854s-1.17-.377-1.646-.854c-.511-.51-1.147-1.146-2.354-1.146s-1.843.636-2.354 1.146c-.387.388-.722.699-1.255.805l-.391-1.951h-3l4 18h22l4-18h-3zm-2.609 13.049h-18l-2.412-12.062c.836-.167 1.346-.665 1.766-1.085.476-.476.853-.853 1.646-.853s1.17.377 1.646.854c.511.51 1.147 1.146 2.354 1.146s1.843-.636 2.354-1.146c.476-.477.853-.854 1.646-.854s1.17.377 1.646.854c.511.51 1.147 1.146 2.354 1.146s1.843-.636 2.354-1.146c.476-.477.853-.854 1.646-.854s1.17.377 1.646.854c.42.42.93.918 1.766 1.085z"/></svg>