<svg xmlns="http://www.w3.org/2000/svg" width="850" height="1090" viewBox="0 0 850 1090"><rect width="100%" height="100%" fill="#DDDDDD"/><path fill="#999999" d="M197 572.3q3.05 0 5.35-.88 2.3-.87 3.87-2.42 1.58-1.55 2.38-3.7.8-2.15.8-4.65 0-5.95-3.3-9t-9.1-3.05q-5.8 0-9.1 3.05t-3.3 9q0 2.5.8 4.65.8 2.15 2.37 3.7 1.58 1.55 3.88 2.42 2.3.88 5.35.88Zm0-54.95q-2.75 0-4.75.85t-3.33 2.27q-1.32 1.43-1.95 3.28-.62 1.85-.62 3.9 0 2.15.52 4.17.53 2.03 1.78 3.6 1.25 1.58 3.3 2.53 2.05.95 5.05.95t5.05-.95q2.05-.95 3.3-2.53 1.25-1.57 1.77-3.6.53-2.02.53-4.17 0-2.05-.65-3.9t-1.95-3.28q-1.3-1.42-3.3-2.27-2-.85-4.75-.85Zm12.2 26.1q6.6 2.15 9.75 6.57 3.15 4.43 3.15 10.83 0 4.8-1.83 8.7-1.82 3.9-5.12 6.65-3.3 2.75-7.93 4.25-4.62 1.5-10.22 1.5-5.6 0-10.23-1.5-4.62-1.5-7.92-4.25t-5.13-6.65q-1.82-3.9-1.82-8.7 0-6.4 3.15-10.83 3.15-4.42 9.75-6.57-5.25-2.2-7.88-6.25-2.62-4.05-2.62-9.75 0-4.1 1.67-7.65 1.68-3.55 4.68-6.18 3-2.62 7.17-4.1 4.18-1.47 9.18-1.47t9.17 1.47q4.18 1.48 7.18 4.1 3 2.63 4.67 6.18 1.68 3.55 1.68 7.65 0 5.7-2.63 9.75-2.62 4.05-7.87 6.25Zm39.65-23.4-2.55 15.05q2.4-.5 4.6-.73 2.2-.22 4.25-.22 5.7 0 10.05 1.7 4.35 1.7 7.3 4.7t4.45 7.02q1.5 4.03 1.5 8.68 0 5.75-2.03 10.5-2.02 4.75-5.62 8.12-3.6 3.38-8.53 5.23-4.92 1.85-10.72 1.85-3.4 0-6.45-.7-3.05-.7-5.73-1.88-2.67-1.17-4.95-2.7-2.27-1.52-4.07-3.22l3.8-5.25q1.2-1.7 3.15-1.7 1.25 0 2.55.8 1.3.8 2.97 1.75 1.68.95 3.95 1.75 2.28.8 5.48.8 3.4 0 6-1.1t4.32-3.08q1.73-1.97 2.6-4.7.88-2.72.88-5.92 0-5.9-3.43-9.23-3.42-3.32-10.12-3.32-5.15 0-10.55 1.9l-7.7-2.2 6-35.1h35.7v5.25q0 2.65-1.65 4.3t-5.6 1.65h-19.85ZM339.5 545q0 9.45-2.03 16.42-2.02 6.98-5.6 11.53-3.57 4.55-8.45 6.77-4.87 2.23-10.52 2.23-5.65 0-10.48-2.23-4.82-2.22-8.37-6.77-3.55-4.55-5.55-11.53-2-6.97-2-16.42 0-9.5 2-16.45 2-6.95 5.55-11.5t8.37-6.78q4.83-2.22 10.48-2.22t10.52 2.22q4.88 2.23 8.45 6.78 3.58 4.55 5.6 11.5 2.03 6.95 2.03 16.45Zm-12.75 0q0-7.85-1.15-13t-3.08-8.2q-1.92-3.05-4.42-4.28-2.5-1.22-5.2-1.22-2.65 0-5.13 1.22-2.47 1.23-4.37 4.28-1.9 3.05-3.03 8.2-1.12 5.15-1.12 13t1.12 13q1.13 5.15 3.03 8.2 1.9 3.05 4.37 4.27 2.48 1.23 5.13 1.23 2.7 0 5.2-1.23 2.5-1.22 4.42-4.27 1.93-3.05 3.08-8.2 1.15-5.15 1.15-13Zm92.15 19.6-6.55 6.45-16.95-16.95-17.1 17.05-6.55-6.45 17.1-17.15-16.3-16.3 6.5-6.5 16.3 16.3 16.2-16.2 6.6 6.5-16.25 16.25 17 17Zm68.45 7.3h13v9.25h-40v-9.25H475v-42.15q0-2.5.15-5.15l-10.4 8.7q-.9.7-1.78.87-.87.18-1.65.03-.77-.15-1.37-.53-.6-.37-.9-.82l-3.9-5.35 22.05-18.75h10.15v63.15ZM562.1 545q0 9.45-2.03 16.42-2.02 6.98-5.6 11.53-3.57 4.55-8.45 6.77-4.87 2.23-10.52 2.23-5.65 0-10.48-2.23-4.82-2.22-8.37-6.77-3.55-4.55-5.55-11.53-2-6.97-2-16.42 0-9.5 2-16.45 2-6.95 5.55-11.5t8.37-6.78q4.83-2.22 10.48-2.22t10.52 2.22q4.88 2.23 8.45 6.78 3.58 4.55 5.6 11.5 2.03 6.95 2.03 16.45Zm-12.75 0q0-7.85-1.15-13t-3.08-8.2q-1.92-3.05-4.42-4.28-2.5-1.22-5.2-1.22-2.65 0-5.13 1.22-2.47 1.23-4.37 4.28-1.9 3.05-3.03 8.2-1.12 5.15-1.12 13t1.12 13q1.13 5.15 3.03 8.2 1.9 3.05 4.37 4.27 2.48 1.23 5.13 1.23 2.7 0 5.2-1.23 2.5-1.22 4.42-4.27 1.93-3.05 3.08-8.2 1.15-5.15 1.15-13Zm31.75-14.45q0 6.05 3.12 9.22 3.13 3.18 8.88 3.18 3 0 5.35-.95 2.35-.95 3.95-2.6 1.6-1.65 2.42-3.9.83-2.25.83-4.85 0-2.95-.9-5.28-.9-2.32-2.55-3.92t-3.93-2.45q-2.27-.85-4.97-.85-2.8 0-5.05.92-2.25.93-3.85 2.58t-2.45 3.92q-.85 2.28-.85 4.98Zm-6.05 50.6 22.45-28.05q.85-1.05 1.6-2.05.75-1 1.45-2-2.5 1.6-5.5 2.42-3 .83-6.3.83-3.75 0-7.35-1.3-3.6-1.3-6.4-3.93-2.8-2.62-4.53-6.5-1.72-3.87-1.72-9.07 0-4.85 1.8-9.1t5.05-7.45q3.25-3.2 7.8-5.05 4.55-1.85 10.05-1.85 5.55 0 9.98 1.75 4.42 1.75 7.54 4.9 3.13 3.15 4.8 7.55 1.68 4.4 1.68 9.65 0 3.35-.58 6.35-.57 3-1.62 5.77-1.05 2.78-2.55 5.43-1.5 2.65-3.35 5.25l-16.55 23.6q-.85 1.2-2.55 2.02-1.7.83-3.85.83h-11.35ZM678.1 545q0 9.45-2.03 16.42-2.02 6.98-5.6 11.53-3.57 4.55-8.45 6.77-4.87 2.23-10.52 2.23-5.65 0-10.48-2.23-4.82-2.22-8.37-6.77-3.55-4.55-5.55-11.53-2-6.97-2-16.42 0-9.5 2-16.45 2-6.95 5.55-11.5t8.37-6.78q4.83-2.22 10.48-2.22t10.52 2.22q4.88 2.23 8.45 6.78 3.58 4.55 5.6 11.5 2.03 6.95 2.03 16.45Zm-12.75 0q0-7.85-1.15-13t-3.08-8.2q-1.92-3.05-4.42-4.28-2.5-1.22-5.2-1.22-2.65 0-5.13 1.22-2.47 1.23-4.37 4.28-1.9 3.05-3.03 8.2-1.12 5.15-1.12 13t1.12 13q1.13 5.15 3.03 8.2 1.9 3.05 4.37 4.27 2.48 1.23 5.13 1.23 2.7 0 5.2-1.23 2.5-1.22 4.42-4.27 1.93-3.05 3.08-8.2 1.15-5.15 1.15-13Z"/></svg>